<svg width="48" height="46" viewBox="0 0 48 46" fill="none" xmlns="http://www.w3.org/2000/svg">
<path d="M6.90193 33.1532V26.2301C6.90193 25.312 7.26288 24.4316 7.90533 23.7824C8.54782 23.1333 9.41918 22.7686 10.3278 22.7686H37.7346C38.6431 22.7686 39.5147 23.1333 40.157 23.7824C40.7994 24.4316 41.1605 25.312 41.1605 26.2301V33.1532" stroke="#0275FF" stroke-width="3" stroke-linecap="round" stroke-linejoin="round"/>
<path d="M24.0309 12.3852V33.1544" stroke="#0275FF" stroke-width="3" stroke-linecap="round" stroke-linejoin="round"/>
<path d="M18.8919 5.46154V8.92308C18.8919 10.8348 20.4257 12.3846 22.3177 12.3846H25.7436C27.6356 12.3846 29.1694 10.8348 29.1694 8.92308V5.46154C29.1694 3.5498 27.6356 2 25.7436 2H22.3177C20.4257 2 18.8919 3.5498 18.8919 5.46154Z" stroke="#0275FF" stroke-width="3" stroke-linecap="round" stroke-linejoin="round"/>
<path d="M18.8919 36.6153V40.0768C18.8919 41.9886 20.4257 43.5383 22.3177 43.5383H25.7436C27.6356 43.5383 29.1694 41.9886 29.1694 40.0768V36.6153C29.1694 34.7034 27.6356 33.1537 25.7436 33.1537H22.3177C20.4257 33.1537 18.8919 34.7034 18.8919 36.6153Z" stroke="#0275FF" stroke-width="3" stroke-linecap="round" stroke-linejoin="round"/>
<path d="M1.76289 36.6153V40.0768C1.76289 41.9886 3.2967 43.5383 5.18875 43.5383H8.6146C10.5066 43.5383 12.0405 41.9886 12.0405 40.0768V36.6153C12.0405 34.7034 10.5066 33.1537 8.6146 33.1537H5.18875C3.2967 33.1537 1.76289 34.7034 1.76289 36.6153Z" stroke="#0275FF" stroke-width="3" stroke-linecap="round" stroke-linejoin="round"/>
<path d="M36.0209 36.6153V40.0768C36.0209 41.9886 37.5546 43.5383 39.4467 43.5383H42.8726C44.7647 43.5383 46.2984 41.9886 46.2984 40.0768V36.6153C46.2984 34.7034 44.7647 33.1537 42.8726 33.1537H39.4467C37.5546 33.1537 36.0209 34.7034 36.0209 36.6153Z" stroke="#0275FF" stroke-width="3" stroke-linecap="round" stroke-linejoin="round"/>
</svg>
