<svg width="43" height="44" viewBox="0 0 43 44" fill="none" xmlns="http://www.w3.org/2000/svg">
<path d="M4.78659 41.9884H38.2741C39.9555 41.9884 41.3184 40.6113 41.3184 38.9124V5.07603C41.3184 3.37719 39.9555 2 38.2741 2H4.78659C3.10525 2 1.74226 3.37719 1.74226 5.07603V38.9124C1.74226 40.6113 3.10525 41.9884 4.78659 41.9884Z" stroke="#0275FF" stroke-width="3" stroke-linecap="round" stroke-linejoin="round"/>
<path d="M5.54804 41.9885L27.7716 20.8252C28.0451 20.5951 28.3898 20.469 28.7458 20.469C29.1017 20.469 29.4464 20.5951 29.7199 20.8252L41.3188 29.2228" stroke="#0275FF" stroke-width="3" stroke-linecap="round" stroke-linejoin="round"/>
<path d="M13.9203 18.9189C16.4423 18.9189 18.4868 16.8532 18.4868 14.3049C18.4868 11.7566 16.4423 9.69083 13.9203 9.69083C11.3983 9.69083 9.35381 11.7566 9.35381 14.3049C9.35381 16.8532 11.3983 18.9189 13.9203 18.9189Z" stroke="#0275FF" stroke-width="3" stroke-linecap="round" stroke-linejoin="round"/>
</svg>
